<svg width="22" height="22" viewBox="0 0 22 22" fill="none" xmlns="http://www.w3.org/2000/svg">
<path d="M15.3999 7.69973V5.49966H2.1998V16.5H15.3999V14.2999C15.3999 14.0082 15.5159 13.7283 15.7221 13.5221C15.9284 13.3158 16.2081 13.2 16.5 13.2H19.3446C19.6363 13.2 19.916 13.316 20.1223 13.5223L21.6776 15.0776C21.8839 15.2839 21.9999 15.5636 21.9999 15.8553V20.9001C21.9999 21.1918 21.8841 21.4717 21.6778 21.6779C21.4716 21.8842 21.1917 22 20.9 22H16.5C16.2081 22 15.9284 21.8842 15.7221 21.6779C15.5159 21.4717 15.3999 21.1918 15.3999 20.9001V18.7H1.09994C0.808245 18.7 0.528333 18.5842 0.322082 18.3779C0.115831 18.1717 0 17.8918 0 17.6V1.09999C0 0.707008 0.209565 0.343861 0.549877 0.147369C0.89019 -0.049123 1.30968 -0.049123 1.65001 0.147369C1.99034 0.343861 2.19989 0.707004 2.19989 1.09999V3.30006H15.4V1.09999C15.4 0.808291 15.516 0.528379 15.7222 0.322128C15.9285 0.115878 16.2082 4.71509e-05 16.5001 4.71509e-05H19.3447C19.6364 4.71509e-05 19.9161 0.116061 20.1224 0.322312L21.6777 1.87765C21.884 2.08391 22 2.36365 22 2.65533V7.7001C22 7.9918 21.8842 8.27171 21.6779 8.47796C21.4717 8.68421 21.1918 8.80004 20.9001 8.80004H16.5001C16.2082 8.80004 15.9285 8.68421 15.7222 8.47796C15.516 8.27171 15.4 7.99182 15.4 7.7001L15.3999 7.69973Z" fill="#003350"/>
</svg>
